<svg width="240" height="58" viewBox="0 0 240 58" fill="none" xmlns="http://www.w3.org/2000/svg">
<path d="M86.3125 20.8906H78.5156V42H76.5938V20.8906H68.8125V19.25H86.3125V20.8906ZM94.5469 42.3125C93.1094 42.3125 91.8073 41.9583 90.6406 41.25C89.4844 40.5417 88.5833 39.5573 87.9375 38.2969C87.2917 37.026 86.9688 35.6042 86.9688 34.0312V33.3594C86.9688 31.7344 87.2812 30.2708 87.9062 28.9688C88.5417 27.6667 89.4219 26.6458 90.5469 25.9062C91.6719 25.1562 92.8906 24.7812 94.2031 24.7812C96.2552 24.7812 97.8802 25.4844 99.0781 26.8906C100.286 28.2865 100.891 30.1979 100.891 32.625V33.6719H88.8281V34.0312C88.8281 35.9479 89.375 37.5469 90.4688 38.8281C91.5729 40.099 92.9583 40.7344 94.625 40.7344C95.625 40.7344 96.5052 40.5521 97.2656 40.1875C98.0365 39.8229 98.7344 39.2396 99.3594 38.4375L100.531 39.3281C99.1562 41.3177 97.1615 42.3125 94.5469 42.3125ZM94.2031 26.375C92.7969 26.375 91.6094 26.8906 90.6406 27.9219C89.6823 28.9531 89.099 30.3385 88.8906 32.0781H99.0312V31.875C98.9792 30.25 98.5156 28.9271 97.6406 27.9062C96.7656 26.8854 95.6198 26.375 94.2031 26.375ZM112.344 26.6875C111.948 26.6146 111.526 26.5781 111.078 26.5781C109.911 26.5781 108.922 26.9062 108.109 27.5625C107.307 28.2083 106.734 29.151 106.391 30.3906V42H104.531V25.0938H106.359L106.391 27.7812C107.38 25.7812 108.969 24.7812 111.156 24.7812C111.677 24.7812 112.089 24.849 112.391 24.9844L112.344 26.6875ZM123.125 26.6875C122.729 26.6146 122.307 26.5781 121.859 26.5781C120.693 26.5781 119.703 26.9062 118.891 27.5625C118.089 28.2083 117.516 29.151 117.172 30.3906V42H115.312V25.0938H117.141L117.172 27.7812C118.161 25.7812 119.75 24.7812 121.938 24.7812C122.458 24.7812 122.87 24.849 123.172 24.9844L123.125 26.6875ZM136.141 42C135.953 41.4688 135.833 40.6823 135.781 39.6406C135.125 40.4948 134.286 41.1562 133.266 41.625C132.255 42.0833 131.182 42.3125 130.047 42.3125C128.422 42.3125 127.104 41.8594 126.094 40.9531C125.094 40.0469 124.594 38.901 124.594 37.5156C124.594 35.8698 125.276 34.5677 126.641 33.6094C128.016 32.651 129.927 32.1719 132.375 32.1719H135.766V30.25C135.766 29.0417 135.391 28.0938 134.641 27.4062C133.901 26.7083 132.818 26.3594 131.391 26.3594C130.089 26.3594 129.01 26.6927 128.156 27.3594C127.302 28.026 126.875 28.8281 126.875 29.7656L125 29.75C125 28.4062 125.625 27.2448 126.875 26.2656C128.125 25.276 129.661 24.7812 131.484 24.7812C133.37 24.7812 134.854 25.2552 135.938 26.2031C137.031 27.1406 137.594 28.4531 137.625 30.1406V38.1406C137.625 39.776 137.797 41 138.141 41.8125V42H136.141ZM130.266 40.6562C131.516 40.6562 132.63 40.3542 133.609 39.75C134.599 39.1458 135.318 38.3385 135.766 37.3281V33.6094H132.422C130.557 33.6302 129.099 33.974 128.047 34.6406C126.995 35.2969 126.469 36.2031 126.469 37.3594C126.469 38.3073 126.818 39.0938 127.516 39.7188C128.224 40.3438 129.141 40.6562 130.266 40.6562Z" fill="#265987"/>
<path d="M147.625 19.25L154.188 36.6875L160.734 19.25H165.844V42H161.906V34.5L162.297 24.4688L155.578 42H152.75L146.047 24.4844L146.438 34.5V42H142.5V19.25H147.625ZM180.266 42C180.099 41.6771 179.953 41.151 179.828 40.4219C178.62 41.6823 177.141 42.3125 175.391 42.3125C173.693 42.3125 172.307 41.8281 171.234 40.8594C170.161 39.8906 169.625 38.6927 169.625 37.2656C169.625 35.4635 170.292 34.0833 171.625 33.125C172.969 32.1562 174.885 31.6719 177.375 31.6719H179.703V30.5625C179.703 29.6875 179.458 28.9896 178.969 28.4688C178.479 27.9375 177.734 27.6719 176.734 27.6719C175.87 27.6719 175.161 27.8906 174.609 28.3281C174.057 28.7552 173.781 29.3021 173.781 29.9688H169.984C169.984 29.0417 170.292 28.1771 170.906 27.375C171.521 26.5625 172.354 25.9271 173.406 25.4688C174.469 25.0104 175.651 24.7812 176.953 24.7812C178.932 24.7812 180.51 25.2812 181.688 26.2812C182.865 27.2708 183.469 28.6667 183.5 30.4688V38.0938C183.5 39.6146 183.714 40.8281 184.141 41.7344V42H180.266ZM176.094 39.2656C176.844 39.2656 177.547 39.0833 178.203 38.7188C178.87 38.3542 179.37 37.8646 179.703 37.25V34.0625H177.656C176.25 34.0625 175.193 34.3073 174.484 34.7969C173.776 35.2865 173.422 35.9792 173.422 36.875C173.422 37.6042 173.661 38.1875 174.141 38.625C174.63 39.0521 175.281 39.2656 176.094 39.2656ZM186.812 33.4219C186.812 30.7969 187.427 28.7031 188.656 27.1406C189.896 25.5677 191.536 24.7812 193.578 24.7812C195.505 24.7812 197.021 25.4531 198.125 26.7969L198.297 25.0938H201.719V41.4844C201.719 43.7031 201.026 45.4531 199.641 46.7344C198.266 48.0156 196.406 48.6562 194.062 48.6562C192.823 48.6562 191.609 48.3958 190.422 47.875C189.245 47.3646 188.349 46.6927 187.734 45.8594L189.531 43.5781C190.698 44.9635 192.135 45.6562 193.844 45.6562C195.104 45.6562 196.099 45.3125 196.828 44.625C197.557 43.9479 197.922 42.9479 197.922 41.625V40.4844C196.828 41.7031 195.37 42.3125 193.547 42.3125C191.568 42.3125 189.948 41.526 188.688 39.9531C187.438 38.3802 186.812 36.2031 186.812 33.4219ZM190.594 33.75C190.594 35.4479 190.938 36.7865 191.625 37.7656C192.323 38.7344 193.286 39.2188 194.516 39.2188C196.047 39.2188 197.182 38.5625 197.922 37.25V29.8125C197.203 28.5312 196.078 27.8906 194.547 27.8906C193.297 27.8906 192.323 28.3854 191.625 29.375C190.938 30.3646 190.594 31.8229 190.594 33.75ZM209.156 25.0938L209.266 27.0469C210.516 25.5365 212.156 24.7812 214.188 24.7812C217.708 24.7812 219.5 26.7969 219.562 30.8281V42H215.766V31.0469C215.766 29.974 215.531 29.1823 215.062 28.6719C214.604 28.151 213.849 27.8906 212.797 27.8906C211.266 27.8906 210.125 28.5833 209.375 29.9688V42H205.578V25.0938H209.156ZM233.547 42C233.38 41.6771 233.234 41.151 233.109 40.4219C231.901 41.6823 230.422 42.3125 228.672 42.3125C226.974 42.3125 225.589 41.8281 224.516 40.8594C223.443 39.8906 222.906 38.6927 222.906 37.2656C222.906 35.4635 223.573 34.0833 224.906 33.125C226.25 32.1562 228.167 31.6719 230.656 31.6719H232.984V30.5625C232.984 29.6875 232.74 28.9896 232.25 28.4688C231.76 27.9375 231.016 27.6719 230.016 27.6719C229.151 27.6719 228.443 27.8906 227.891 28.3281C227.339 28.7552 227.062 29.3021 227.062 29.9688H223.266C223.266 29.0417 223.573 28.1771 224.188 27.375C224.802 26.5625 225.635 25.9271 226.688 25.4688C227.75 25.0104 228.932 24.7812 230.234 24.7812C232.214 24.7812 233.792 25.2812 234.969 26.2812C236.146 27.2708 236.75 28.6667 236.781 30.4688V38.0938C236.781 39.6146 236.995 40.8281 237.422 41.7344V42H233.547ZM229.375 39.2656C230.125 39.2656 230.828 39.0833 231.484 38.7188C232.151 38.3542 232.651 37.8646 232.984 37.25V34.0625H230.938C229.531 34.0625 228.474 34.3073 227.766 34.7969C227.057 35.2865 226.703 35.9792 226.703 36.875C226.703 37.6042 226.943 38.1875 227.422 38.625C227.911 39.0521 228.562 39.2656 229.375 39.2656Z" fill="#29415D"/>
<path d="M33.6207 0H19.6552L46.0345 26.3793H59.4828L33.6207 0Z" fill="#265987"/>
<path d="M31.0345 18.6207L24.8276 11.8965L0 36.7241H12.931L31.0345 18.6207Z" fill="#29415D"/>
<path d="M41.3793 28.9655L34.6552 22.2414L9.82761 47.069H23.2759L41.3793 28.9655Z" fill="#265987"/>
<path d="M33.6207 57.4138L60 31.0345H46.0345L19.6552 57.4138H33.6207Z" fill="#29415D"/>
</svg>
