<svg width="60" height="60" viewBox="0 0 60 60" fill="none" xmlns="http://www.w3.org/2000/svg">
<path d="M50.4315 20.0974C50.4309 20.0974 50.4302 20.0974 50.4296 20.0974H2.8161C2.36591 20.0969 2.00048 20.4614 2 20.9116C2 20.9122 2 20.9129 2 20.9135V43.768C1.99952 44.2182 2.36401 44.5836 2.81419 44.5841C2.81479 44.5841 2.8155 44.5841 2.8161 44.5841H35.1933C35.6439 44.5841 36.0093 44.2186 36.0093 43.768C36.0093 43.3173 35.6439 42.9519 35.1933 42.9519H3.63219V21.7296H49.6135V23.7703C49.613 24.2205 49.9775 24.5859 50.4277 24.5864C50.4283 24.5864 50.429 24.5864 50.4296 24.5864C50.8797 24.5869 51.2452 24.2224 51.2457 23.7722C51.2457 23.7716 51.2457 23.7709 51.2457 23.7703V20.9135C51.2461 20.4633 50.8817 20.098 50.4315 20.0974Z" fill="#FFB83D"/>
<path d="M44.8949 16.3084L6.80417 7.73801C6.59277 7.69075 6.37124 7.72908 6.18805 7.84466C6.0051 7.9612 5.87571 8.14534 5.82809 8.35699L3.92356 16.9274C3.82571 17.3676 4.1033 17.8037 4.54348 17.9016C4.98367 17.9994 5.41981 17.7218 5.51765 17.2817L7.24412 9.51018L44.5369 17.9006C44.5959 17.9143 44.6563 17.9211 44.7169 17.9206C45.1675 17.9198 45.5322 17.5538 45.5315 17.1031C45.5308 16.7221 45.2666 16.3924 44.8949 16.3084Z" fill="#FFB83D"/>
<path d="M40.2698 11.5859L17.4153 2.0632C17.0181 1.89762 16.5604 2.06772 16.3678 2.45268L14.4633 6.26176C14.2482 6.65957 14.3963 7.15653 14.7942 7.37163C15.192 7.58672 15.689 7.43864 15.9041 7.04071C15.9125 7.02512 15.9205 7.00917 15.9279 6.99298V6.99488L17.4905 3.86763L39.6394 13.0961C40.0565 13.2701 40.5357 13.0732 40.7097 12.6561C40.8838 12.2393 40.6869 11.76 40.2698 11.5859Z" fill="#FFB83D"/>
<path d="M40.8468 23.9065H33.2887C32.838 23.9065 32.4726 24.2719 32.4726 24.7226C32.4726 25.1733 32.838 25.5387 33.2887 25.5387H40.8468C41.2975 25.5387 41.6629 25.1733 41.6629 24.7226C41.6629 24.2719 41.2975 23.9065 40.8468 23.9065Z" fill="#FFB83D"/>
<path d="M25.6706 23.9607C21.0424 23.9607 17.2906 27.7125 17.2906 32.3407C17.2953 36.9668 21.0444 40.7159 25.6706 40.7206C30.2987 40.7206 34.0505 36.9688 34.0505 32.3407C34.0505 27.7125 30.2987 23.9607 25.6706 23.9607ZM25.6706 39.197C21.8839 39.197 18.8142 36.1274 18.8142 32.3407C18.8184 28.5557 21.8856 25.4885 25.6706 25.4843C29.4573 25.4843 32.5269 28.554 32.5269 32.3407C32.5269 36.1274 29.4573 39.197 25.6706 39.197Z" fill="#FFB83D"/>
<path d="M48.525 26.6272C43.478 26.6272 38.05 27.8194 38.05 30.4363V53.2907C38.05 55.9076 43.478 57.0998 48.525 57.0998C53.572 57.0998 59 55.9076 59 53.2907V30.4363C59 27.8194 53.572 26.6272 48.525 26.6272ZM57.0954 53.2765C56.9516 53.805 54.0958 55.1953 48.525 55.1953C42.9542 55.1953 40.0984 53.805 39.9546 53.2907V51.7938C41.981 52.8146 45.3282 53.2907 48.525 53.2907C51.7218 53.2907 55.07 52.8098 57.0954 51.7928V53.2765ZM57.0954 49.4674C56.9516 49.9959 54.0958 51.3862 48.525 51.3862C42.9542 51.3862 40.0984 49.9959 39.9546 49.4817V47.9847C41.981 49.0055 45.3282 49.4817 48.525 49.4817C51.7218 49.4817 55.07 49.0008 57.0954 47.9837V49.4674ZM57.0954 45.6583C56.9516 46.1868 54.0958 47.5771 48.525 47.5771C42.9542 47.5771 40.0984 46.1868 39.9546 45.6726V44.1756C41.981 45.1964 45.3282 45.6726 48.525 45.6726C51.7218 45.6726 55.07 45.1917 57.0954 44.1747V45.6583ZM57.0954 41.8492C56.9516 42.3777 54.0958 43.768 48.525 43.768C42.9542 43.768 40.0984 42.3777 39.9546 41.8635V40.3665C41.981 41.3874 45.3282 41.8635 48.525 41.8635C51.7218 41.8635 55.07 41.3826 57.0954 40.3656V41.8492ZM57.0954 38.0401C56.9516 38.5687 54.0958 39.959 48.525 39.959C42.9542 39.959 40.0984 38.5687 39.9546 38.0544V36.5575C41.981 37.5735 45.3282 38.0544 48.525 38.0544C51.7218 38.0544 55.07 37.5735 57.0954 36.5565V38.0401ZM57.0954 34.2311C56.9516 34.7596 54.0958 36.1499 48.525 36.1499C42.9542 36.1499 40.0984 34.7596 39.9546 34.2454V32.7484C41.981 33.7645 45.3282 34.2454 48.525 34.2454C51.7218 34.2454 55.07 33.7645 57.0954 32.7474V34.2311ZM48.525 32.3408C42.9628 32.3408 40.1079 30.9543 39.9546 30.4534V30.4477C40.1079 29.9173 42.9628 28.5317 48.525 28.5317C54.0482 28.5317 56.905 29.8973 57.0954 30.4363C56.905 30.9753 54.0482 32.3408 48.525 32.3408Z" fill="#FFB83D"/>
<path d="M18.0524 39.1419H10.8542L7.44131 35.409V29.2192L11.2104 25.5387H18.0524C18.5031 25.5387 18.8685 25.1733 18.8685 24.7226C18.8685 24.2719 18.5031 23.9065 18.0524 23.9065H10.879C10.6657 23.906 10.4606 23.9891 10.3076 24.1379L6.05385 28.2869C5.89494 28.4726 5.80781 28.7091 5.80817 28.9535V35.7261C5.80817 35.9297 5.88423 36.126 6.02148 36.2765L9.89055 40.5084C10.0452 40.6776 10.264 40.7742 10.4933 40.774H18.0524C18.5031 40.774 18.8685 40.4086 18.8685 39.9579C18.8685 39.5073 18.5032 39.1419 18.0524 39.1419Z" fill="#FFB83D"/>
<path d="M26.1467 31.3884H25.1945C24.8983 31.3884 24.7183 31.2227 24.7183 31.1503C24.7183 31.0779 24.8983 30.9122 25.1945 30.9122H27.5751C28.101 30.9122 28.5274 30.4858 28.5274 29.96C28.5274 29.4341 28.101 29.0077 27.5751 29.0077H26.6229C26.6229 28.4818 26.1965 28.0554 25.6706 28.0554C25.1447 28.0554 24.7183 28.4818 24.7183 29.0077V29.0505C23.6621 29.1997 22.862 30.0799 22.8138 31.1455C22.882 32.3941 23.9454 33.3534 25.1945 33.2929H26.1467C26.4429 33.2929 26.6229 33.4586 26.6229 33.531C26.6229 33.6033 26.4429 33.769 26.1467 33.769H23.7661C23.2402 33.769 22.8138 34.1954 22.8138 34.7213C22.8138 35.2472 23.2402 35.6736 23.7661 35.6736H24.7183C24.7183 36.1995 25.1447 36.6258 25.6706 36.6258C26.1965 36.6258 26.6229 36.1995 26.6229 35.6736V35.6307C27.679 35.4816 28.4792 34.6013 28.5274 33.5357C28.4592 32.2872 27.3957 31.3279 26.1467 31.3884Z" fill="#FFB83D"/>
</svg>
