<svg width="60" height="60" viewBox="0 0 60 60" fill="none" xmlns="http://www.w3.org/2000/svg">
<path d="M52.7266 30.2097V23.1823C52.7266 20.7994 50.8783 18.8615 48.543 18.6735L42.0168 7.27457C41.412 6.22032 40.4354 5.46682 39.2669 5.15393C38.1039 4.84318 36.8877 5.00639 35.8468 5.61223L13.4747 18.6369H9.54542C7.0386 18.6369 5 20.6754 5 23.1823V50.4546C5 52.9614 7.0385 55 9.54542 55H48.1812C50.688 55 52.7266 52.9615 52.7266 50.4546V43.4272C54.0464 42.9565 54.9993 41.707 54.9993 40.2275V33.4094C54.9993 31.9299 54.0464 30.6804 52.7266 30.2097ZM45.9021 18.6369H35.9977L43.4261 14.3121L45.9021 18.6369ZM42.297 12.3399L31.4809 18.6369H26.9945L41.1752 10.3806L42.297 12.3399ZM36.9908 7.57637C37.5046 7.27563 38.1049 7.19573 38.6787 7.34892C39.2591 7.50425 39.743 7.87935 40.0437 8.40423L40.0461 8.40839L22.4778 18.6369H17.9916L36.9908 7.57637ZM50.4538 50.4546C50.4538 51.7074 49.434 52.7272 48.1812 52.7272H9.54542C8.2926 52.7272 7.27276 51.7074 7.27276 50.4546V23.1823C7.27276 21.9295 8.2926 20.9096 9.54542 20.9096H48.1812C49.434 20.9096 50.4538 21.9295 50.4538 23.1823V30.0004H43.6358C39.876 30.0004 36.8177 33.0587 36.8177 36.8184C36.8177 40.5782 39.876 43.6365 43.6358 43.6365H50.4538V50.4546ZM52.7266 40.2275C52.7266 40.8544 52.2173 41.3639 51.5902 41.3639H43.6358C41.129 41.3639 39.0904 39.3254 39.0904 36.8184C39.0904 34.3116 41.1289 32.273 43.6358 32.273H51.5902C52.2172 32.273 52.7266 32.7824 52.7266 33.4094V40.2275Z" fill="#FFB83D"/>
<path d="M43.6353 34.5458C42.3824 34.5458 41.3626 35.5656 41.3626 36.8184C41.3626 38.0713 42.3824 39.0911 43.6353 39.0911C44.8881 39.0911 45.9079 38.0713 45.9079 36.8184C45.908 35.5656 44.8882 34.5458 43.6353 34.5458Z" fill="#FFB83D"/>
</svg>
