<svg width="60" height="60" viewBox="0 0 60 60" fill="none" xmlns="http://www.w3.org/2000/svg">
<path d="M54.8886 27.1795L46.4053 13.6058C46.3151 13.4614 46.1774 13.353 46.0159 13.2991L30.2316 8.03757C30.0814 7.98748 29.9188 7.98748 29.7685 8.03757L13.9842 13.2992C13.8227 13.3531 13.685 13.4615 13.5948 13.6059L5.11143 27.1795C4.89707 27.5225 5.00127 27.9743 5.34424 28.1887L8.0203 29.8615V51.4004H7.11835C6.71386 51.4004 6.38594 51.7283 6.38594 52.1328C6.38594 52.5373 6.71386 52.8652 7.11835 52.8652H52.8817C53.2861 52.8652 53.6141 52.5373 53.6141 52.1328C53.6141 51.7283 53.2861 51.4004 52.8817 51.4004H51.9797V29.8615L54.6558 28.1887C54.9987 27.9743 55.1029 27.5225 54.8886 27.1795ZM22.2165 51.4004L30 44.9142L37.7835 51.4004H22.2165ZM20.926 50.569V37.3524L28.856 43.9607L20.926 50.569ZM39.0739 50.569L31.144 43.9607L34.3917 41.2543C34.7024 40.9954 34.7444 40.5335 34.4854 40.2228C34.2265 39.912 33.7645 39.8701 33.4539 40.1291L29.9999 43.0074L22.2164 36.5212H37.7834L36.0684 37.9502C35.7577 38.2091 35.7157 38.671 35.9747 38.9818C36.1195 39.1556 36.3279 39.2454 36.5378 39.2454C36.7031 39.2454 36.8694 39.1897 37.0062 39.0756L39.0739 37.3526V50.569ZM39.8021 35.0563H19.2915V33.2523H40.7085V35.0563H39.8031C39.8028 35.0563 39.8024 35.0563 39.8021 35.0563ZM51.7287 28.2908L44.2561 16.3351C44.1659 16.1907 44.0282 16.0823 43.8667 16.0285L30.2315 11.4836C30.0813 11.4335 29.9187 11.4335 29.7684 11.4836L20.7792 14.4799C20.3955 14.6079 20.1881 15.0227 20.316 15.4064C20.4439 15.7902 20.8586 15.9976 21.2424 15.8697L30 12.9505L43.1536 17.3349L50.5149 29.1125V51.4004H40.5388V36.5212H41.4409C41.8454 36.5212 42.1733 36.1932 42.1733 35.7887V32.5199C42.1733 32.1154 41.8454 31.7875 41.4409 31.7875H18.5591C18.1546 31.7875 17.8267 32.1154 17.8267 32.5199V35.7887C17.8267 36.1932 18.1546 36.5212 18.5591 36.5212H19.4611V51.4004H9.48514V29.1125L16.8464 17.3349L18.2395 16.8705C18.6233 16.7426 18.8306 16.3279 18.7028 15.9441C18.5749 15.5603 18.16 15.353 17.7763 15.4808L16.1334 16.0285C15.9718 16.0823 15.8341 16.1908 15.7439 16.3351L8.27128 28.2908L6.74179 27.3347L14.6973 14.6055L30 9.50446L45.3027 14.6055L53.2582 27.3348L51.7287 28.2908Z" fill="#FFB83D"/>
<path d="M35.7204 17.895H24.2796C23.8751 17.895 23.5472 18.2229 23.5472 18.6274V28.4338C23.5472 28.8383 23.8751 29.1663 24.2796 29.1663H35.7204C36.1249 29.1663 36.4528 28.8383 36.4528 28.4338V18.6274C36.4528 18.2229 36.1249 17.895 35.7204 17.895ZM34.988 27.7014H30.7324V21.8963C30.7324 21.4917 30.4045 21.1639 30 21.1639C29.5955 21.1639 29.2676 21.4917 29.2676 21.8963V27.7014H25.012V19.3599H34.988V27.7014Z" fill="#FFB83D"/>
</svg>
