<svg width="60" height="60" viewBox="0 0 60 60" fill="none" xmlns="http://www.w3.org/2000/svg">
<path d="M30.4702 5C20.2855 5 12 13.2855 12 23.4702C12 26.8231 13.5037 30.4292 13.5667 30.5813C14.0524 31.734 15.0106 33.5246 15.7017 34.5741L28.3657 53.7625C28.884 54.5491 29.651 55 30.4702 55C31.2894 55 32.0565 54.5491 32.5748 53.7636L45.2399 34.5741C45.932 33.5246 46.8892 31.734 47.3748 30.5813C47.4379 30.4302 48.9405 26.8242 48.9405 23.4702C48.9405 13.2855 40.6549 5 30.4702 5ZM45.3714 29.7382C44.9379 30.7714 44.0459 32.437 43.4255 33.3779L30.7603 52.5674C30.5104 52.9465 30.4311 52.9465 30.1812 52.5674L17.5161 33.3779C16.8957 32.437 16.0037 30.7703 15.5702 29.7371C15.5517 29.6925 14.173 26.3733 14.173 23.4702C14.173 14.4839 21.4839 7.17297 30.4702 7.17297C39.4565 7.17297 46.7675 14.4839 46.7675 23.4702C46.7675 26.3777 45.3855 29.7056 45.3714 29.7382Z" fill="#FFB83D"/>
<path d="M30.4703 13.6929C25.078 13.6929 20.6919 18.0801 20.6919 23.4712C20.6919 28.8624 25.078 33.2496 30.4703 33.2496C35.8625 33.2496 40.2486 28.8624 40.2486 23.4712C40.2486 18.0801 35.8625 13.6929 30.4703 13.6929ZM30.4703 31.0766C26.2775 31.0766 22.8649 27.6651 22.8649 23.4712C22.8649 19.2774 26.2775 15.8658 30.4703 15.8658C34.663 15.8658 38.0756 19.2774 38.0756 23.4712C38.0756 27.6651 34.663 31.0766 30.4703 31.0766Z" fill="#FFB83D"/>
</svg>
