<svg width="60" height="60" viewBox="0 0 60 60" fill="none" xmlns="http://www.w3.org/2000/svg">
<path d="M26.0316 56.6205L26.7921 57.379C27.2547 57.8403 28.0042 57.8323 28.4568 57.3613L28.8327 56.9701C31.7052 53.9806 33.2872 50.0511 33.2872 45.9051L33.2872 45.4705C34.4972 45.2359 35.6447 44.7502 36.6685 44.0325C36.9551 43.8316 37.0245 43.4365 36.8237 43.15C36.6229 42.8634 36.2277 42.7939 35.9411 42.9948C34.8448 43.7633 33.5803 44.2226 32.2505 44.3371C32.3421 43.2595 32.6557 42.2474 33.1463 41.3473C33.1905 41.2927 33.2258 41.2306 33.25 41.1633C33.8616 40.1126 34.7187 39.224 35.7464 38.5755C35.9219 38.4821 36.0945 38.3825 36.2638 38.277C37.1364 37.8188 38.1121 37.5248 39.1517 37.4362C39.0407 38.7173 38.6069 39.9471 37.8863 41.015C37.6905 41.3051 37.7671 41.6986 38.057 41.8948C38.3471 42.0905 38.741 42.0141 38.9368 41.724C39.866 40.3471 40.3866 38.74 40.4425 37.0765C40.4599 36.5569 40.0331 36.1284 39.5118 36.1458C39.188 36.1567 38.8672 36.1849 38.5504 36.23C39.7148 34.7558 40.3786 32.955 40.4425 31.0518C40.46 30.5314 40.0322 30.1037 39.512 30.1212C39.3739 30.1212 38.9409 30.1498 38.5505 30.2054C39.7148 28.7312 40.3787 26.9305 40.4426 25.0273C40.4601 24.5069 40.0322 24.0792 39.512 24.0966C39.3754 24.0966 38.95 24.1239 38.5507 24.1808C39.7803 22.6246 40.4475 20.7137 40.4475 18.7003C40.4475 15.5964 40.229 12.4639 39.7981 9.38991C39.7494 9.04329 39.429 8.80175 39.0825 8.85038C38.736 8.89895 38.4944 9.21935 38.543 9.56591C38.9376 12.3803 39.1505 15.2446 39.1772 18.0894C38.4092 18.1442 37.6681 18.2973 36.9662 18.5362C36.9619 15.6591 36.8502 12.7767 36.6327 9.92998C36.5935 9.4162 36.593 9.39535 36.5788 9.33411C36.509 9.03212 36.2266 8.82075 35.9106 8.8462C35.5617 8.8744 35.3018 9.18004 35.33 9.52881C35.6052 12.9327 35.699 15.9214 35.699 19.0816C35.2796 19.3025 34.8801 19.5561 34.5036 19.8389C34.95 17.1878 34.1896 14.3713 32.2225 12.2839L32.2225 9.47785C32.2225 9.12788 31.9388 8.84417 31.5889 8.84423C31.2389 8.84423 30.9552 9.12794 30.9553 9.47785L30.9553 12.2839C28.99 14.3694 28.2293 17.1827 28.673 19.8317C28.2937 19.5466 27.8945 19.2941 27.4788 19.0755C27.4788 15.8712 27.5761 12.8881 27.8477 9.52899C27.876 9.18015 27.6161 8.87445 27.2672 8.84632C26.9184 8.81806 26.6127 9.078 26.5845 9.42683C26.3415 12.4328 26.2161 15.4952 26.2115 18.5321C25.5028 18.2924 24.761 18.1428 24.0004 18.0891C24.0272 15.2441 24.2402 12.3799 24.6347 9.56579C24.6832 9.21929 24.4417 8.89895 24.0952 8.85026C23.7486 8.80169 23.4283 9.04329 23.3796 9.38979C22.9201 12.6676 22.7076 16.1467 22.7302 18.7064C22.7316 20.7175 23.3986 22.6261 24.627 24.1804C24.2333 24.1244 23.7981 24.0963 23.6657 24.0963C23.1455 24.0789 22.7177 24.5065 22.7351 25.0269C22.799 26.9302 23.4627 28.7309 24.6271 30.2051C24.3103 30.1599 23.9894 30.1318 23.6657 30.121C23.1454 30.1035 22.7177 30.5312 22.7351 31.0516C22.7633 31.8946 22.9105 32.7257 23.1726 33.5218C23.282 33.8542 23.6402 34.0349 23.9727 33.9255C24.3052 33.8162 24.4858 33.4579 24.3764 33.1255C24.1938 32.5708 24.0763 31.9959 24.0258 31.4114C25.0652 31.5001 26.0408 31.7939 26.9134 32.2522C27.083 32.3578 27.2558 32.4575 27.4316 32.5512C28.4591 33.1997 29.316 34.0879 29.9274 35.1386C29.9517 35.2061 29.987 35.2683 30.0314 35.323C30.5219 36.2231 30.8354 37.235 30.927 38.3125C29.8671 38.2208 28.8512 37.91 27.9359 37.4073C27.8409 37.3498 27.7448 37.2943 27.6478 37.2406C26.9168 36.796 26.2573 36.2247 25.7005 35.5416C25.4793 35.2705 25.0803 35.2296 24.809 35.4506C24.5723 35.6434 24.5111 35.9718 24.6461 36.2325C24.2446 36.1745 23.8016 36.1457 23.6656 36.1457C23.1453 36.1283 22.7176 36.5559 22.735 37.0763C22.8779 41.3363 25.9892 44.7152 29.8902 45.4706L29.8902 45.905C29.8902 49.3443 28.5256 52.5577 26.0479 54.9531C25.5772 55.4082 25.568 56.1569 26.0316 56.6205ZM31.1579 34.7574L31.1579 33.5732C31.4379 33.5866 31.7262 33.5872 32.0199 33.5732V34.7573C31.8585 35.0549 31.7146 35.3611 31.5889 35.6746C31.4631 35.3612 31.3192 35.055 31.1579 34.7574ZM31.1579 28.7328V27.5486C31.4452 27.5622 31.7324 27.5622 32.0199 27.5486L32.0199 28.7326C31.8585 29.0302 31.7146 29.3365 31.5889 29.65C31.4631 29.3366 31.3192 29.0303 31.1579 28.7328ZM31.1579 40.782V39.5977C31.4452 39.6115 31.7323 39.6116 32.0199 39.5978V40.7819C31.8585 41.0795 31.7146 41.3857 31.5889 41.6992C31.4631 41.3858 31.3192 41.0796 31.1579 40.782ZM39.1519 31.4114C38.9439 33.8525 37.6043 35.9421 35.6607 37.1704C35.4821 37.2654 35.3065 37.3666 35.1344 37.474C34.2417 37.9421 33.264 38.2267 32.2505 38.3128C32.342 37.2354 32.6552 36.2236 33.1456 35.3235C33.1903 35.2684 33.2261 35.2056 33.2505 35.1374C33.8613 34.0879 34.7172 33.2005 35.7435 32.5523C35.9209 32.4579 36.0952 32.3574 36.2662 32.2508C37.1383 31.7932 38.1133 31.4999 39.1519 31.4114ZM39.1519 25.3867C38.9439 27.8279 37.6043 29.9175 35.6607 31.1458C35.4821 31.2407 35.3065 31.342 35.1344 31.4494C34.242 31.9174 33.2644 32.2021 32.2505 32.2882C32.342 31.2108 32.6552 30.199 33.1456 29.2989C33.1903 29.2437 33.2261 29.181 33.2504 29.1128C33.8589 28.0675 34.7103 27.183 35.731 26.5356C35.9163 26.4373 36.0983 26.3323 36.2767 26.2206C37.1461 25.7663 38.1175 25.4749 39.1519 25.3867ZM39.1519 19.3625C38.9359 21.8773 37.5052 23.9903 35.5239 25.1955C35.429 25.2481 35.335 25.3025 35.2421 25.3587C34.3381 25.8563 33.3252 26.171 32.2511 26.2633C32.568 22.6137 35.4844 19.6809 39.1519 19.3625ZM31.5889 13.4773C33.9515 16.2891 33.9515 20.4242 31.5889 23.236C31.3883 22.9973 31.2048 22.749 31.0383 22.4929C30.9692 22.3737 30.8972 22.256 30.8224 22.1398C29.2622 19.4239 29.5178 15.9422 31.5889 13.4773ZM24.0259 19.3622C25.8031 19.5148 27.4547 20.2803 28.7318 21.5575C29.1165 21.9422 29.4549 22.3609 29.7439 22.8069C29.8106 22.9215 29.8799 23.0351 29.952 23.1472C30.4986 24.0968 30.8319 25.1555 30.9269 26.2634C29.8418 26.1703 28.8384 25.8519 27.9575 25.3708C27.8505 25.3057 27.7422 25.243 27.6327 25.1827C25.6403 23.9616 24.2388 21.8436 24.0259 19.3622ZM24.0257 25.3867C25.0602 25.4749 26.0315 25.7662 26.9009 26.2207C27.0793 26.3324 27.2614 26.4374 27.4467 26.5356C28.4675 27.1831 29.3189 28.0678 29.9274 29.1131C29.9517 29.1811 29.9873 29.2437 30.032 29.2987C30.5224 30.1988 30.8357 31.2107 30.9273 32.2881C30.6266 32.2626 30.64 32.2547 30.5716 32.2495C29.6724 32.131 28.8238 31.857 28.0539 31.4549C27.8755 31.3433 27.6935 31.2383 27.5081 31.14C25.5693 29.9111 24.2335 27.8242 24.0257 25.3867ZM24.0257 37.436C25.0628 37.5243 26.0363 37.8169 26.9074 38.2733C27.0795 38.3806 27.255 38.4817 27.4337 38.5766C28.4603 39.2249 29.3164 40.1126 29.9274 41.1623C29.9517 41.2304 29.9873 41.293 30.032 41.348C30.5224 42.248 30.8357 43.2599 30.9273 44.3374C30.6292 44.3121 30.639 44.3039 30.5716 44.2989C27.0663 43.8366 24.3306 41.0138 24.0257 37.436ZM31.1579 45.9048V45.6224C31.4419 45.636 31.7302 45.6363 32.0199 45.6224V45.9051C32.0199 49.722 30.5635 53.3397 27.919 56.0919L27.6143 56.409L26.9993 55.7957C29.6818 53.1667 31.1578 49.6582 31.1579 45.9048Z" fill="#FFB83D"/>
</svg>
